<svg id="svg" version="1.1" xmlns="http://www.w3.org/2000/svg" xmlns:xlink="http://www.w3.org/1999/xlink" width="400" height="400" viewBox="0, 0, 400,400"><g id="svgg"><path id="path0" d="M133.200 8.422 C 125.764 9.848,122.535 10.772,118.491 12.631 C 117.331 13.164,116.150 13.600,115.867 13.600 C 115.239 13.600,105.520 18.518,103.980 19.614 C 103.373 20.046,102.719 20.400,102.527 20.400 C 101.961 20.400,97.935 23.551,96.133 25.405 C 93.723 27.884,90.178 28.542,84.527 27.558 C 80.700 26.891,78.342 28.324,74.400 33.714 C 73.630 34.766,72.512 36.267,71.916 37.049 C 71.320 37.831,70.713 38.859,70.569 39.335 C 70.424 39.811,70.074 40.470,69.790 40.800 C 68.369 42.455,66.268 50.338,66.661 52.539 C 67.184 55.472,70.105 61.801,72.170 64.475 C 72.626 65.066,73.625 66.416,74.389 67.475 C 75.153 68.534,77.147 71.020,78.820 73.000 C 80.493 74.980,83.132 78.172,84.685 80.094 C 88.257 84.513,90.266 86.188,92.917 86.959 C 94.163 87.321,95.491 88.060,96.171 88.770 L 97.320 89.969 96.599 91.858 C 95.441 94.891,89.570 101.074,82.601 106.600 C 81.769 107.260,80.750 108.118,80.337 108.507 C 79.528 109.269,68.579 118.626,66.600 120.247 C 63.055 123.150,61.852 124.234,56.852 129.027 C 53.854 131.901,47.879 137.509,43.576 141.487 C 29.169 154.810,21.465 163.332,18.527 169.200 C 18.142 169.970,17.528 171.050,17.164 171.600 C 11.047 180.829,19.014 196.896,33.274 204.089 C 35.339 205.131,36.863 205.656,43.000 207.441 C 47.608 208.780,65.502 208.487,69.028 207.014 C 69.715 206.727,71.589 206.194,73.191 205.829 C 74.793 205.465,76.644 204.888,77.303 204.547 C 77.963 204.206,79.372 203.668,80.434 203.353 C 81.496 203.037,82.467 202.616,82.590 202.415 C 82.714 202.215,83.757 201.590,84.908 201.027 C 86.058 200.463,87.810 199.462,88.800 198.802 C 89.790 198.142,91.230 197.330,92.000 196.997 C 92.770 196.665,94.210 195.964,95.200 195.441 C 96.190 194.917,97.609 194.360,98.354 194.201 C 99.098 194.043,100.448 193.576,101.354 193.165 C 107.791 190.242,109.747 194.634,105.289 202.000 C 104.689 202.990,103.839 204.408,103.400 205.150 C 102.960 205.893,102.238 206.973,101.795 207.550 C 101.012 208.571,99.439 211.681,96.811 217.400 C 96.103 218.940,95.181 220.920,94.762 221.800 C 94.343 222.680,93.751 224.120,93.445 225.000 C 93.140 225.880,92.617 227.320,92.283 228.200 C 88.715 237.620,87.719 250.346,90.165 255.251 C 91.452 257.830,90.403 259.715,86.066 262.612 C 85.260 263.151,84.240 263.842,83.800 264.147 C 82.200 265.259,77.072 268.630,75.200 269.800 C 73.338 270.965,67.441 274.979,65.213 276.600 C 64.607 277.040,63.594 277.760,62.959 278.200 C 48.111 288.501,27.999 305.515,22.060 312.800 C 19.546 315.883,18.848 316.819,17.435 319.000 C 16.580 320.320,15.577 321.850,15.206 322.400 C 14.351 323.665,11.204 330.099,11.187 330.614 C 11.181 330.826,10.732 331.900,10.191 333.000 C 9.650 334.100,9.206 335.286,9.204 335.636 C 9.202 335.986,8.844 337.666,8.408 339.370 C 7.972 341.073,7.418 344.477,7.177 346.934 C 6.936 349.390,6.483 351.923,6.169 352.561 C 5.309 354.316,5.446 354.800,6.800 354.800 L 8.000 354.800 8.000 357.967 C 8.000 361.775,8.200 362.400,9.422 362.400 C 10.269 362.400,10.370 362.599,10.479 364.500 C 10.583 366.309,10.721 366.617,11.474 366.724 C 12.069 366.809,12.429 367.223,12.605 368.024 C 12.804 368.930,13.086 369.200,13.832 369.200 C 14.600 369.200,14.800 369.408,14.800 370.210 C 14.800 371.012,15.047 371.269,16.000 371.460 C 17.090 371.678,17.200 371.845,17.200 373.279 C 17.200 374.926,17.899 376.000,18.971 376.000 C 19.375 376.000,19.600 376.358,19.600 377.000 C 19.600 377.660,19.838 378.023,20.300 378.068 C 21.559 378.191,22.588 378.286,23.300 378.343 C 23.765 378.381,24.000 378.736,24.000 379.400 C 24.000 380.356,24.107 380.400,26.400 380.400 C 28.533 380.400,28.800 380.489,28.800 381.200 C 28.800 381.855,29.073 382.003,30.300 382.018 C 31.125 382.027,32.520 382.310,33.400 382.646 C 34.280 382.982,35.720 383.440,36.600 383.663 C 37.480 383.886,40.090 384.548,42.400 385.134 C 48.226 386.613,65.950 386.725,71.600 385.320 C 73.470 384.855,76.439 384.258,78.197 383.995 C 79.956 383.731,82.057 383.251,82.868 382.926 C 83.678 382.602,85.569 382.005,87.070 381.600 C 90.384 380.707,96.256 378.611,96.918 378.086 C 97.183 377.876,98.120 377.478,99.000 377.202 C 99.880 376.925,100.870 376.481,101.200 376.214 C 101.530 375.947,104.618 374.343,108.063 372.650 C 111.508 370.956,114.545 369.308,114.812 368.986 C 115.079 368.663,115.515 368.400,115.780 368.400 C 116.046 368.400,117.149 367.833,118.231 367.141 C 119.314 366.449,121.280 365.195,122.600 364.354 C 127.436 361.276,132.033 357.854,134.437 355.544 C 137.901 352.215,142.508 347.048,143.950 344.873 C 144.747 343.671,146.071 341.677,146.892 340.443 C 147.713 339.210,148.389 338.020,148.396 337.800 C 148.402 337.580,148.871 336.410,149.436 335.200 C 150.615 332.680,152.168 324.042,152.566 317.800 C 152.979 311.319,151.088 293.250,149.618 289.626 C 149.210 288.622,148.607 286.990,148.276 286.000 C 147.946 285.010,147.366 283.390,146.986 282.400 C 145.234 277.827,145.871 265.380,148.015 262.284 C 150.931 258.074,155.256 254.464,158.200 253.783 C 158.860 253.630,160.120 253.100,161.000 252.604 C 161.880 252.108,163.001 251.578,163.492 251.427 C 164.299 251.177,165.926 250.241,170.000 247.682 C 170.770 247.198,172.030 246.687,172.800 246.546 C 174.308 246.270,178.311 244.382,179.976 243.161 C 180.539 242.747,181.958 242.229,183.129 242.009 C 185.095 241.640,188.981 239.827,190.400 238.616 C 191.570 237.619,193.194 237.632,194.291 238.649 C 195.210 239.501,195.684 239.600,198.856 239.600 L 202.395 239.600 203.645 241.300 C 204.333 242.235,205.130 243.540,205.417 244.200 C 206.784 247.346,212.811 255.883,215.478 258.451 C 217.482 260.381,221.403 263.200,222.083 263.200 C 222.299 263.200,222.954 263.536,223.538 263.948 C 224.122 264.359,225.050 264.830,225.600 264.996 C 226.675 265.319,231.413 267.429,232.400 268.025 C 232.730 268.224,233.810 268.874,234.800 269.469 C 241.621 273.566,244.274 280.265,241.298 285.875 C 240.801 286.811,240.136 289.281,239.789 291.475 C 239.180 295.325,238.486 298.601,236.587 306.600 C 235.547 310.978,234.573 322.115,234.899 325.899 C 235.069 327.870,234.947 328.458,234.049 330.000 C 232.672 332.363,232.459 346.333,233.750 349.600 C 234.142 350.590,234.815 352.474,235.246 353.786 C 235.678 355.098,236.265 356.448,236.550 356.786 C 236.835 357.124,237.311 358.030,237.609 358.800 C 237.906 359.570,238.486 360.650,238.898 361.200 C 239.309 361.750,240.512 363.370,241.569 364.800 C 244.002 368.089,247.016 371.093,250.084 373.286 C 251.402 374.229,252.958 375.379,253.541 375.843 C 254.123 376.307,256.220 377.544,258.200 378.593 C 260.180 379.641,262.155 380.747,262.589 381.050 C 263.023 381.352,263.607 381.600,263.888 381.600 C 264.168 381.600,265.541 382.140,266.938 382.800 C 268.335 383.460,269.820 384.004,270.239 384.009 C 270.657 384.014,271.810 384.385,272.800 384.835 C 273.790 385.284,276.101 386.003,277.935 386.431 C 279.769 386.859,281.597 387.384,281.997 387.598 C 282.397 387.813,284.512 388.256,286.697 388.585 C 288.881 388.913,291.913 389.476,293.434 389.836 C 300.809 391.584,318.298 390.275,325.800 387.414 C 327.120 386.910,328.830 386.367,329.600 386.206 C 330.370 386.045,331.630 385.595,332.400 385.207 C 333.170 384.819,335.232 383.804,336.982 382.951 C 349.488 376.855,362.393 364.679,372.492 349.447 C 373.092 348.541,374.102 346.810,374.736 345.600 C 375.370 344.390,376.182 342.860,376.542 342.200 C 376.901 341.540,377.196 340.769,377.198 340.487 C 377.199 340.204,377.628 339.124,378.150 338.087 C 378.673 337.049,379.303 335.246,379.550 334.080 C 379.798 332.914,380.250 331.474,380.554 330.880 C 380.859 330.286,381.326 328.720,381.592 327.400 C 381.859 326.080,382.392 324.274,382.778 323.386 C 383.163 322.498,383.706 320.788,383.984 319.586 C 384.263 318.384,384.725 317.024,385.012 316.564 C 386.878 313.577,386.665 309.671,384.568 308.434 C 382.673 307.316,382.705 305.713,384.682 302.791 L 386.164 300.600 386.309 295.600 C 386.532 287.964,385.778 271.455,385.049 268.000 C 384.700 266.350,384.157 263.740,383.841 262.200 C 383.290 259.508,381.681 254.757,380.184 251.400 C 379.665 250.236,379.431 248.491,379.326 245.000 C 379.213 241.267,378.950 239.444,378.140 236.800 C 375.916 229.534,374.371 225.121,373.448 223.400 C 373.094 222.740,372.804 222.029,372.802 221.820 C 372.801 221.611,370.955 217.790,368.700 213.329 C 363.516 203.075,363.112 202.323,362.063 200.989 C 361.588 200.386,361.200 199.678,361.200 199.417 C 361.200 199.156,360.665 198.235,360.011 197.371 C 359.357 196.507,358.817 195.649,358.811 195.465 C 358.805 195.281,358.299 194.381,357.686 193.465 C 357.073 192.549,356.353 191.440,356.086 191.000 C 355.819 190.560,355.015 189.247,354.300 188.082 C 351.088 182.848,350.352 181.562,348.415 177.800 C 347.283 175.600,346.202 173.530,346.013 173.200 C 345.824 172.870,345.015 171.160,344.214 169.400 C 343.413 167.640,342.501 165.750,342.186 165.200 C 341.872 164.650,341.336 163.570,340.996 162.800 C 340.657 162.030,340.105 160.950,339.770 160.400 C 339.436 159.850,338.806 158.680,338.370 157.800 C 337.934 156.920,336.865 155.120,335.994 153.800 C 335.124 152.480,334.062 150.758,333.635 149.973 C 333.208 149.189,332.575 148.311,332.229 148.024 C 331.883 147.737,331.600 147.327,331.600 147.113 C 331.600 146.899,331.262 146.246,330.849 145.662 C 329.758 144.120,326.800 138.477,326.800 137.937 C 326.800 137.684,326.342 136.508,325.781 135.324 C 324.736 133.115,324.669 132.439,324.700 124.400 C 324.706 122.750,324.703 120.563,324.694 119.540 C 324.682 118.246,324.987 117.150,325.696 115.940 C 326.263 114.971,327.170 112.173,327.742 109.626 C 328.958 104.215,329.618 103.249,331.623 103.948 C 333.452 104.586,334.460 104.515,336.456 103.609 C 337.777 103.009,339.082 102.815,341.836 102.809 C 345.478 102.800,347.160 102.445,351.120 100.850 L 353.241 99.996 354.364 101.225 C 355.311 102.262,355.732 102.435,357.044 102.328 L 358.600 102.200 358.710 99.600 C 358.771 98.163,358.559 96.105,358.238 95.000 C 357.918 93.900,357.281 91.725,356.822 90.166 C 353.939 80.371,346.380 70.368,339.883 67.753 C 333.101 65.023,319.964 66.367,313.767 70.425 C 310.456 72.593,303.600 80.731,303.600 82.492 C 303.600 82.677,303.285 83.305,302.900 83.887 C 302.057 85.163,300.561 89.307,299.756 92.600 C 299.433 93.920,298.810 96.322,298.371 97.938 C 296.476 104.912,296.392 118.779,298.202 125.792 C 298.714 127.776,299.262 130.300,299.420 131.400 C 299.578 132.500,300.033 134.238,300.433 135.262 C 300.832 136.286,301.433 138.176,301.768 139.462 C 302.103 140.748,302.742 142.513,303.188 143.385 C 303.635 144.256,304.001 145.246,304.002 145.585 C 304.002 145.923,304.542 147.280,305.200 148.600 C 305.858 149.920,306.398 151.225,306.398 151.500 C 306.399 151.775,306.846 152.855,307.391 153.900 C 307.936 154.945,309.117 157.330,310.016 159.200 C 310.915 161.070,312.265 163.680,313.016 165.000 C 313.767 166.320,314.842 168.300,315.406 169.400 C 315.969 170.500,317.040 172.390,317.785 173.600 C 319.295 176.053,322.400 182.114,322.400 182.610 C 322.400 183.172,324.891 186.930,326.688 189.079 C 328.484 191.228,331.187 195.084,331.217 195.540 C 331.226 195.683,332.039 197.060,333.023 198.600 C 334.007 200.140,335.157 201.940,335.579 202.600 C 336.000 203.260,336.723 204.340,337.185 205.000 C 339.432 208.211,340.030 209.105,340.797 210.400 C 341.254 211.170,342.154 212.610,342.798 213.600 C 344.135 215.656,349.354 226.094,349.797 227.600 C 349.959 228.150,350.426 229.230,350.835 230.000 C 351.643 231.524,352.072 232.594,355.727 242.200 C 356.339 243.808,357.931 249.054,359.612 255.000 C 360.110 256.760,360.839 260.090,361.234 262.400 C 361.629 264.710,362.224 267.860,362.558 269.400 C 364.068 276.372,364.343 296.098,363.027 303.000 C 362.197 307.352,360.405 314.017,359.813 314.954 C 359.519 315.419,359.149 316.430,358.990 317.200 C 358.832 317.970,358.369 319.259,357.961 320.065 C 357.553 320.871,357.005 322.825,356.744 324.406 C 356.464 326.104,355.887 327.844,355.335 328.658 C 354.821 329.416,354.398 330.163,354.396 330.318 C 354.394 330.473,353.764 331.390,352.996 332.356 C 352.228 333.322,351.600 334.239,351.600 334.393 C 351.600 336.081,334.766 350.000,332.723 350.000 C 332.503 350.000,331.846 350.329,331.262 350.730 C 330.678 351.132,329.570 351.701,328.800 351.996 C 328.030 352.291,327.102 352.785,326.738 353.094 C 326.374 353.403,325.214 353.915,324.162 354.231 C 323.109 354.548,321.863 355.060,321.393 355.368 C 317.269 358.070,292.776 357.967,285.696 355.217 C 284.538 354.768,283.299 354.400,282.941 354.400 C 282.583 354.400,280.754 353.653,278.876 352.740 C 265.791 346.377,261.735 338.635,266.421 328.968 C 267.070 327.631,267.600 326.302,267.600 326.016 C 267.600 325.729,267.963 324.907,268.407 324.189 C 269.282 322.772,270.349 319.905,271.756 315.184 C 272.251 313.525,272.952 311.635,273.315 310.984 C 273.678 310.333,274.257 309.170,274.602 308.400 C 274.948 307.630,275.741 306.100,276.366 305.000 C 276.990 303.900,278.038 302.003,278.694 300.785 C 279.350 299.567,280.079 298.217,280.314 297.785 C 284.423 290.236,285.562 274.509,282.590 266.339 C 282.243 265.382,281.628 263.520,281.225 262.200 C 278.652 253.772,274.221 246.119,269.000 241.087 C 266.805 238.972,265.692 238.197,260.539 235.200 C 259.594 234.650,257.870 233.647,256.710 232.971 C 255.549 232.295,253.881 231.328,253.001 230.823 C 252.122 230.317,250.973 229.565,250.447 229.151 C 249.922 228.738,249.312 228.400,249.091 228.400 C 247.181 228.400,241.178 222.957,240.362 220.485 C 239.016 216.406,243.750 211.717,250.593 210.351 C 251.697 210.131,253.655 209.493,254.944 208.933 C 258.018 207.599,259.372 208.342,257.475 210.322 C 256.877 210.945,256.511 211.578,256.661 211.728 C 257.138 212.205,259.596 212.020,260.514 211.438 C 261.001 211.129,262.816 210.494,264.546 210.026 C 268.956 208.836,268.945 208.844,275.767 202.071 C 289.321 188.616,291.477 179.221,284.367 164.600 C 283.725 163.280,283.200 162.053,283.200 161.873 C 283.200 161.694,282.750 160.957,282.200 160.236 C 281.650 159.514,281.200 158.802,281.200 158.653 C 281.200 158.388,279.021 155.002,277.820 153.400 C 274.277 148.675,267.586 142.095,263.447 139.263 C 259.896 136.834,257.324 135.250,253.800 133.322 C 251.535 132.083,247.643 130.419,246.458 130.184 C 245.720 130.038,244.335 129.572,243.380 129.150 C 238.504 126.993,227.531 127.285,222.692 129.699 C 220.061 131.012,217.200 134.232,217.200 135.879 C 217.200 136.408,214.803 141.373,212.655 145.291 C 208.569 152.746,207.926 154.339,206.393 160.800 C 206.211 161.570,205.859 164.630,205.612 167.600 C 205.365 170.570,204.907 174.543,204.594 176.430 C 204.281 178.316,203.831 182.006,203.595 184.630 C 203.359 187.253,202.908 190.313,202.593 191.429 C 202.277 192.546,201.912 194.796,201.781 196.429 C 201.464 200.400,200.669 202.552,199.290 203.168 C 198.690 203.435,197.525 204.092,196.700 204.627 C 195.875 205.162,194.438 206.095,193.506 206.700 C 192.574 207.305,191.088 208.536,190.205 209.435 C 189.143 210.515,187.852 211.314,186.399 211.788 C 185.189 212.183,183.210 213.108,182.000 213.844 C 179.806 215.178,175.635 217.397,170.057 220.195 C 168.293 221.080,166.370 222.451,165.257 223.618 C 164.112 224.819,162.712 225.808,161.605 226.198 C 159.056 227.098,156.116 229.204,155.554 230.534 C 154.861 232.174,154.098 232.800,152.794 232.800 C 152.073 232.800,151.422 233.119,151.044 233.659 C 150.523 234.403,150.094 234.508,147.828 234.445 C 145.950 234.394,144.922 234.564,144.180 235.050 C 142.118 236.401,140.560 232.634,142.054 229.904 C 142.354 229.354,143.029 228.120,143.554 227.162 C 144.079 226.203,145.249 224.449,146.154 223.263 C 147.059 222.078,148.070 220.720,148.400 220.246 C 148.730 219.772,149.810 218.332,150.800 217.046 C 151.790 215.760,152.901 214.253,153.269 213.697 C 153.637 213.140,154.090 212.576,154.276 212.443 C 154.578 212.225,158.792 206.152,159.806 204.473 C 162.300 200.342,164.873 197.040,167.078 195.139 C 171.135 191.644,172.054 190.327,174.434 184.600 L 175.764 181.400 175.782 171.600 L 175.800 161.800 174.654 159.600 C 172.822 156.085,166.002 148.641,162.252 146.064 C 157.517 142.810,146.619 137.200,145.034 137.200 C 144.695 137.200,143.199 136.724,141.709 136.143 C 138.028 134.707,131.483 134.595,127.800 135.904 C 126.480 136.373,123.690 137.060,121.600 137.430 C 114.425 138.702,110.142 141.598,105.536 148.293 C 104.843 149.300,103.990 150.433,103.638 150.812 C 103.287 151.191,101.650 153.362,100.000 155.637 C 95.278 162.146,85.288 171.200,82.828 171.200 C 82.679 171.200,81.705 171.740,80.664 172.400 C 79.624 173.060,78.535 173.600,78.246 173.600 C 77.956 173.600,76.903 174.034,75.906 174.564 C 68.529 178.486,58.384 177.049,57.227 171.918 C 56.441 168.436,56.911 167.872,70.000 156.587 C 74.070 153.078,77.670 149.914,78.000 149.557 C 78.330 149.200,79.950 147.781,81.600 146.404 C 83.250 145.027,85.590 142.970,86.800 141.833 C 88.010 140.695,90.530 138.436,92.400 136.812 C 94.270 135.188,95.890 133.751,96.000 133.619 C 96.110 133.486,97.550 132.367,99.200 131.132 C 103.822 127.673,106.356 125.317,111.231 119.946 C 118.025 112.460,124.938 107.200,127.982 107.200 C 128.376 107.200,129.489 106.850,130.456 106.423 C 131.422 105.995,133.446 105.448,134.952 105.208 C 136.458 104.967,138.345 104.442,139.145 104.042 C 139.945 103.641,141.140 103.186,141.800 103.030 C 143.646 102.593,144.713 101.739,145.612 99.977 C 147.035 97.187,147.490 96.918,156.400 93.607 C 162.578 91.311,163.805 90.698,166.172 88.724 C 169.265 86.145,170.342 84.880,173.600 80.004 C 176.731 75.318,176.286 75.875,184.035 66.911 C 193.973 55.413,194.482 40.634,185.360 28.400 C 183.195 25.497,176.754 19.397,174.801 18.401 C 173.950 17.967,173.132 17.414,172.983 17.173 C 172.834 16.931,171.967 16.384,171.056 15.957 C 170.145 15.529,168.950 14.930,168.400 14.624 C 158.276 8.996,143.645 6.418,133.200 8.422 M244.283 163.800 C 244.619 164.460,245.219 165.360,245.617 165.800 C 247.587 167.980,248.381 171.825,247.283 173.878 C 246.407 175.518,239.747 182.400,239.037 182.400 C 236.622 182.400,235.901 166.692,238.061 161.122 C 239.033 158.616,242.377 160.055,244.283 163.800 M204.815 279.217 C 203.430 279.808,203.424 279.827,204.295 281.077 C 206.031 283.568,206.117 286.319,204.516 288.126 C 202.630 290.255,201.053 293.278,201.481 293.944 C 202.117 294.932,208.216 294.738,212.912 293.580 C 214.941 293.080,217.274 292.513,218.097 292.321 C 221.679 291.483,221.480 286.188,217.737 282.757 C 214.614 279.894,207.683 277.995,204.815 279.217 M194.400 284.800 C 194.165 285.240,193.663 285.601,193.286 285.601 C 192.909 285.602,191.350 286.232,189.823 287.001 C 186.760 288.544,185.471 288.675,181.854 287.811 C 177.330 286.731,174.492 289.711,177.079 292.826 C 184.543 301.815,188.717 302.042,190.851 293.577 C 191.828 289.704,192.190 288.846,193.206 288.000 C 193.867 287.450,194.406 286.783,194.404 286.519 C 194.402 286.254,195.028 285.739,195.796 285.375 C 197.318 284.653,197.315 284.000,195.790 284.000 C 195.238 284.000,194.646 284.340,194.400 284.800 M170.424 294.418 C 168.299 296.353,168.188 296.400,165.733 296.400 C 162.390 296.400,161.880 297.101,161.938 301.608 C 162.002 306.573,163.229 308.161,167.375 308.649 C 172.512 309.252,174.771 306.894,174.217 301.506 C 173.848 297.919,173.924 295.290,174.423 294.356 C 174.714 293.813,174.595 293.502,173.912 293.024 C 172.750 292.209,172.927 292.138,170.424 294.418 M107.627 293.215 C 108.054 293.443,109.191 294.838,110.156 296.315 C 118.184 308.608,110.467 326.689,92.792 337.000 C 91.661 337.660,90.079 338.628,89.276 339.150 C 88.474 339.673,87.180 340.325,86.401 340.600 C 85.622 340.874,84.358 341.481,83.593 341.948 C 82.827 342.415,81.930 342.802,81.600 342.808 C 81.270 342.814,79.920 343.265,78.600 343.810 C 77.280 344.356,74.580 345.068,72.600 345.393 C 70.620 345.718,68.370 346.173,67.600 346.405 C 65.395 347.068,54.642 347.549,49.800 347.201 C 43.161 346.724,39.200 344.608,39.200 341.539 C 39.200 338.287,45.407 329.933,50.000 327.004 C 50.770 326.512,52.840 324.633,54.600 322.828 C 57.937 319.405,64.933 313.208,65.483 313.189 C 65.657 313.183,66.507 312.643,67.371 311.989 C 68.235 311.335,69.158 310.800,69.422 310.800 C 69.686 310.800,70.149 310.501,70.451 310.135 C 70.753 309.769,71.810 309.113,72.800 308.678 C 73.790 308.242,75.029 307.551,75.554 307.143 C 76.079 306.734,76.808 306.400,77.175 306.400 C 78.298 306.400,84.170 303.347,84.668 302.504 C 84.926 302.068,86.137 301.148,87.359 300.458 C 88.929 299.572,89.818 298.741,90.384 297.631 C 91.273 295.889,92.223 295.410,94.009 295.802 C 94.919 296.002,95.200 295.921,95.200 295.460 C 95.200 294.239,96.414 293.532,98.040 293.807 C 99.128 293.991,99.833 293.882,100.475 293.433 C 101.523 292.699,106.386 292.550,107.627 293.215 M22.000 379.975 C 22.000 380.181,22.348 380.324,22.772 380.292 C 23.197 380.260,23.456 380.091,23.349 379.917 C 23.075 379.473,22.000 379.520,22.000 379.975 " stroke="none" fill="#fbf7f7" fill-rule="evenodd"></path><path id="path1" d="M60.400 0.586 C 60.400 1.058,59.560 1.195,56.100 1.286 L 51.800 1.400 51.673 2.500 C 51.551 3.562,51.465 3.600,49.173 3.600 C 46.908 3.600,46.800 3.646,46.800 4.600 C 46.800 5.545,46.680 5.600,44.600 5.600 C 42.430 5.600,42.400 5.616,42.400 6.780 C 42.400 7.936,42.353 7.963,40.100 8.080 C 37.923 8.194,37.793 8.259,37.673 9.300 C 37.553 10.350,37.447 10.400,35.373 10.400 C 33.341 10.400,33.200 10.463,33.200 11.368 C 33.200 12.119,32.930 12.396,32.000 12.600 C 31.070 12.804,30.800 13.081,30.800 13.832 C 30.800 14.600,30.592 14.800,29.790 14.800 C 28.988 14.800,28.731 15.047,28.540 16.000 C 28.313 17.137,28.198 17.200,26.340 17.200 C 24.482 17.200,24.367 17.263,24.140 18.400 C 23.955 19.326,23.685 19.600,22.958 19.600 C 22.295 19.600,21.943 19.887,21.773 20.565 C 21.629 21.140,21.140 21.629,20.565 21.773 C 19.887 21.943,19.600 22.295,19.600 22.958 C 19.600 23.685,19.326 23.955,18.400 24.140 C 17.263 24.367,17.200 24.482,17.200 26.340 C 17.200 28.198,17.137 28.313,16.000 28.540 C 15.047 28.731,14.800 28.988,14.800 29.790 C 14.800 30.592,14.600 30.800,13.832 30.800 C 13.081 30.800,12.804 31.070,12.600 32.000 C 12.396 32.930,12.119 33.200,11.368 33.200 C 10.463 33.200,10.400 33.341,10.400 35.373 C 10.400 37.447,10.350 37.553,9.300 37.673 C 8.259 37.793,8.194 37.923,8.080 40.100 C 7.963 42.353,7.936 42.400,6.780 42.400 C 5.616 42.400,5.600 42.430,5.600 44.600 C 5.600 46.680,5.545 46.800,4.600 46.800 C 3.646 46.800,3.600 46.908,3.600 49.173 C 3.600 51.465,3.562 51.551,2.500 51.673 L 1.400 51.800 1.286 56.100 C 1.195 59.560,1.058 60.400,0.586 60.400 C 0.072 60.400,0.000 77.609,0.000 200.000 C 0.000 322.391,0.072 339.600,0.586 339.600 C 1.058 339.600,1.195 340.440,1.286 343.900 L 1.400 348.200 2.500 348.327 C 3.562 348.449,3.600 348.535,3.600 350.827 L 3.600 353.200 4.810 353.200 C 6.368 353.200,6.606 352.566,7.172 346.901 C 7.416 344.462,7.972 341.073,8.408 339.370 C 8.844 337.666,9.202 335.986,9.204 335.636 C 9.206 335.286,9.650 334.100,10.191 333.000 C 10.732 331.900,11.181 330.826,11.187 330.614 C 11.204 330.099,14.351 323.665,15.206 322.400 C 15.577 321.850,16.580 320.320,17.435 319.000 C 18.848 316.819,19.546 315.883,22.060 312.800 C 27.999 305.515,48.111 288.501,62.959 278.200 C 63.594 277.760,64.607 277.040,65.213 276.600 C 67.441 274.979,73.338 270.965,75.200 269.800 C 77.072 268.630,82.200 265.259,83.800 264.147 C 84.240 263.842,85.260 263.151,86.066 262.612 C 90.403 259.715,91.452 257.830,90.165 255.251 C 87.719 250.346,88.715 237.620,92.283 228.200 C 92.617 227.320,93.140 225.880,93.445 225.000 C 93.751 224.120,94.343 222.680,94.762 221.800 C 95.181 220.920,96.103 218.940,96.811 217.400 C 99.439 211.681,101.012 208.571,101.795 207.550 C 102.238 206.973,102.960 205.893,103.400 205.150 C 103.839 204.408,104.689 202.990,105.289 202.000 C 109.747 194.634,107.791 190.242,101.354 193.165 C 100.448 193.576,99.098 194.043,98.354 194.201 C 97.609 194.360,96.190 194.917,95.200 195.441 C 94.210 195.964,92.770 196.665,92.000 196.997 C 91.230 197.330,89.790 198.142,88.800 198.802 C 87.810 199.462,86.058 200.463,84.908 201.027 C 83.757 201.590,82.714 202.215,82.590 202.415 C 82.467 202.616,81.496 203.037,80.434 203.353 C 79.372 203.668,77.963 204.206,77.303 204.547 C 76.644 204.888,74.793 205.465,73.191 205.829 C 71.589 206.194,69.715 206.727,69.028 207.014 C 65.502 208.487,47.608 208.780,43.000 207.441 C 36.863 205.656,35.339 205.131,33.274 204.089 C 19.014 196.896,11.047 180.829,17.164 171.600 C 17.528 171.050,18.142 169.970,18.527 169.200 C 21.465 163.332,29.169 154.810,43.576 141.487 C 47.879 137.509,53.854 131.901,56.852 129.027 C 61.852 124.234,63.055 123.150,66.600 120.247 C 68.579 118.626,79.528 109.269,80.337 108.507 C 80.750 108.118,81.769 107.260,82.601 106.600 C 89.570 101.074,95.441 94.891,96.599 91.858 L 97.320 89.969 96.171 88.770 C 95.491 88.060,94.163 87.321,92.917 86.959 C 90.266 86.188,88.257 84.513,84.685 80.094 C 83.132 78.172,80.493 74.980,78.820 73.000 C 77.147 71.020,75.153 68.534,74.389 67.475 C 73.625 66.416,72.626 65.066,72.170 64.475 C 70.105 61.801,67.184 55.472,66.661 52.539 C 66.268 50.338,68.369 42.455,69.790 40.800 C 70.074 40.470,70.424 39.811,70.569 39.335 C 70.713 38.859,71.320 37.831,71.916 37.049 C 72.512 36.267,73.630 34.766,74.400 33.714 C 78.342 28.324,80.700 26.891,84.527 27.558 C 90.178 28.542,93.723 27.884,96.133 25.405 C 97.935 23.551,101.961 20.400,102.527 20.400 C 102.719 20.400,103.373 20.046,103.980 19.614 C 105.554 18.494,115.246 13.600,115.892 13.600 C 116.189 13.600,117.178 13.219,118.090 12.754 C 119.002 12.289,120.839 11.583,122.174 11.185 C 123.508 10.787,125.410 10.197,126.400 9.875 C 138.740 5.855,156.170 7.826,168.400 14.624 C 168.950 14.930,170.145 15.529,171.056 15.957 C 171.967 16.384,172.834 16.931,172.983 17.173 C 173.132 17.414,173.950 17.967,174.801 18.401 C 176.754 19.397,183.195 25.497,185.360 28.400 C 194.482 40.634,193.973 55.413,184.035 66.911 C 176.286 75.875,176.731 75.318,173.600 80.004 C 170.342 84.880,169.265 86.145,166.172 88.724 C 163.805 90.698,162.578 91.311,156.400 93.607 C 147.490 96.918,147.035 97.187,145.612 99.977 C 144.713 101.739,143.646 102.593,141.800 103.030 C 141.140 103.186,139.945 103.641,139.145 104.042 C 138.345 104.442,136.458 104.967,134.952 105.208 C 133.446 105.448,131.422 105.995,130.456 106.423 C 129.489 106.850,128.376 107.200,127.982 107.200 C 124.938 107.200,118.025 112.460,111.231 119.946 C 106.356 125.317,103.822 127.673,99.200 131.132 C 97.550 132.367,96.110 133.486,96.000 133.619 C 95.890 133.751,94.270 135.188,92.400 136.812 C 90.530 138.436,88.010 140.695,86.800 141.833 C 85.590 142.970,83.250 145.027,81.600 146.404 C 79.950 147.781,78.330 149.200,78.000 149.557 C 77.670 149.914,74.070 153.078,70.000 156.587 C 56.911 167.872,56.441 168.436,57.227 171.918 C 58.384 177.049,68.529 178.486,75.906 174.564 C 76.903 174.034,77.956 173.600,78.246 173.600 C 78.535 173.600,79.624 173.060,80.664 172.400 C 81.705 171.740,82.679 171.200,82.828 171.200 C 85.288 171.200,95.278 162.146,100.000 155.637 C 101.650 153.362,103.287 151.191,103.638 150.812 C 103.990 150.433,104.843 149.300,105.536 148.293 C 110.142 141.598,114.425 138.702,121.600 137.430 C 123.690 137.060,126.480 136.373,127.800 135.904 C 131.483 134.595,138.028 134.707,141.709 136.143 C 143.199 136.724,144.695 137.200,145.034 137.200 C 146.619 137.200,157.517 142.810,162.252 146.064 C 166.002 148.641,172.822 156.085,174.654 159.600 L 175.800 161.800 175.782 171.600 L 175.764 181.400 174.434 184.600 C 172.054 190.327,171.135 191.644,167.078 195.139 C 164.873 197.040,162.300 200.342,159.806 204.473 C 158.792 206.152,154.578 212.225,154.276 212.443 C 154.090 212.576,153.637 213.140,153.269 213.697 C 152.901 214.253,151.790 215.760,150.800 217.046 C 149.810 218.332,148.730 219.772,148.400 220.246 C 148.070 220.720,147.059 222.078,146.154 223.263 C 145.249 224.449,144.079 226.203,143.554 227.162 C 143.029 228.120,142.354 229.354,142.054 229.904 C 140.560 232.634,142.118 236.401,144.180 235.050 C 144.922 234.564,145.950 234.394,147.828 234.445 C 150.094 234.508,150.523 234.403,151.044 233.659 C 151.422 233.119,152.073 232.800,152.794 232.800 C 154.098 232.800,154.861 232.174,155.554 230.534 C 156.116 229.204,159.056 227.098,161.605 226.198 C 162.712 225.808,164.112 224.819,165.257 223.618 C 166.370 222.451,168.293 221.080,170.057 220.195 C 175.635 217.397,179.806 215.178,182.000 213.844 C 183.210 213.108,185.189 212.183,186.399 211.788 C 187.852 211.314,189.143 210.515,190.205 209.435 C 191.088 208.536,192.574 207.305,193.506 206.700 C 194.438 206.095,195.875 205.162,196.700 204.627 C 197.525 204.092,198.690 203.435,199.290 203.168 C 200.669 202.552,201.464 200.400,201.781 196.429 C 201.912 194.796,202.277 192.546,202.593 191.429 C 202.908 190.313,203.359 187.253,203.595 184.630 C 203.831 182.006,204.281 178.316,204.594 176.430 C 204.907 174.543,205.365 170.570,205.612 167.600 C 205.859 164.630,206.211 161.570,206.393 160.800 C 207.926 154.339,208.569 152.746,212.655 145.291 C 214.803 141.373,217.200 136.408,217.200 135.879 C 217.200 129.441,234.175 125.078,243.380 129.150 C 244.335 129.572,245.720 130.038,246.458 130.184 C 247.643 130.419,251.535 132.083,253.800 133.322 C 257.324 135.250,259.896 136.834,263.447 139.263 C 267.586 142.095,274.277 148.675,277.820 153.400 C 279.021 155.002,281.200 158.388,281.200 158.653 C 281.200 158.802,281.650 159.514,282.200 160.236 C 282.750 160.957,283.200 161.694,283.200 161.873 C 283.200 162.053,283.725 163.280,284.367 164.600 C 291.477 179.221,289.321 188.616,275.767 202.071 C 268.945 208.844,268.956 208.836,264.546 210.026 C 262.816 210.494,261.001 211.129,260.514 211.438 C 259.596 212.020,257.138 212.205,256.661 211.728 C 256.511 211.578,256.877 210.945,257.475 210.322 C 259.372 208.342,258.018 207.599,254.944 208.933 C 253.655 209.493,251.697 210.131,250.593 210.351 C 243.750 211.717,239.016 216.406,240.362 220.485 C 241.178 222.957,247.181 228.400,249.091 228.400 C 249.312 228.400,249.922 228.738,250.447 229.151 C 250.973 229.565,252.122 230.317,253.001 230.823 C 253.881 231.328,255.549 232.295,256.710 232.971 C 257.870 233.647,259.594 234.650,260.539 235.200 C 265.692 238.197,266.805 238.972,269.000 241.087 C 274.221 246.119,278.652 253.772,281.225 262.200 C 281.628 263.520,282.243 265.382,282.590 266.339 C 285.562 274.509,284.423 290.236,280.314 297.785 C 280.079 298.217,279.350 299.567,278.694 300.785 C 278.038 302.003,276.990 303.900,276.366 305.000 C 275.741 306.100,274.948 307.630,274.602 308.400 C 274.257 309.170,273.678 310.333,273.315 310.984 C 272.952 311.635,272.251 313.525,271.756 315.184 C 270.349 319.905,269.282 322.772,268.407 324.189 C 267.963 324.907,267.600 325.729,267.600 326.016 C 267.600 326.302,267.070 327.631,266.421 328.968 C 261.735 338.635,265.791 346.377,278.876 352.740 C 280.754 353.653,282.583 354.400,282.941 354.400 C 283.299 354.400,284.538 354.768,285.696 355.217 C 292.776 357.967,317.269 358.070,321.393 355.368 C 321.863 355.060,323.109 354.548,324.162 354.231 C 325.214 353.915,326.374 353.403,326.738 353.094 C 327.102 352.785,328.030 352.291,328.800 351.996 C 329.570 351.701,330.678 351.132,331.262 350.730 C 331.846 350.329,332.503 350.000,332.723 350.000 C 334.766 350.000,351.600 336.081,351.600 334.393 C 351.600 334.239,352.228 333.322,352.996 332.356 C 353.764 331.390,354.394 330.473,354.396 330.318 C 354.398 330.163,354.821 329.416,355.335 328.658 C 355.887 327.844,356.464 326.104,356.744 324.406 C 357.005 322.825,357.553 320.871,357.961 320.065 C 358.369 319.259,358.832 317.970,358.990 317.200 C 359.149 316.430,359.519 315.419,359.813 314.954 C 360.405 314.017,362.197 307.352,363.027 303.000 C 364.343 296.098,364.068 276.372,362.558 269.400 C 362.224 267.860,361.629 264.710,361.234 262.400 C 360.839 260.090,360.110 256.760,359.612 255.000 C 357.931 249.054,356.339 243.808,355.727 242.200 C 352.072 232.594,351.643 231.524,350.835 230.000 C 350.426 229.230,349.959 228.150,349.797 227.600 C 349.354 226.094,344.135 215.656,342.798 213.600 C 342.154 212.610,341.254 211.170,340.797 210.400 C 340.030 209.105,339.432 208.211,337.185 205.000 C 336.723 204.340,336.000 203.260,335.579 202.600 C 335.157 201.940,334.007 200.140,333.023 198.600 C 332.039 197.060,331.226 195.683,331.217 195.540 C 331.187 195.084,328.484 191.228,326.688 189.079 C 324.891 186.930,322.400 183.172,322.400 182.610 C 322.400 182.114,319.295 176.053,317.785 173.600 C 317.040 172.390,315.969 170.500,315.406 169.400 C 314.842 168.300,313.767 166.320,313.016 165.000 C 312.265 163.680,310.915 161.070,310.016 159.200 C 309.117 157.330,307.936 154.945,307.391 153.900 C 306.846 152.855,306.399 151.775,306.398 151.500 C 306.398 151.225,305.858 149.920,305.200 148.600 C 304.542 147.280,304.002 145.923,304.002 145.585 C 304.001 145.246,303.635 144.256,303.188 143.385 C 302.742 142.513,302.103 140.748,301.768 139.462 C 301.433 138.176,300.832 136.286,300.433 135.262 C 300.033 134.238,299.578 132.500,299.420 131.400 C 299.262 130.300,298.714 127.776,298.202 125.792 C 296.392 118.779,296.476 104.912,298.371 97.938 C 298.810 96.322,299.433 93.920,299.756 92.600 C 300.561 89.307,302.057 85.163,302.900 83.887 C 303.285 83.305,303.600 82.677,303.600 82.492 C 303.600 80.731,310.456 72.593,313.767 70.425 C 319.964 66.367,333.101 65.023,339.883 67.753 C 346.380 70.368,353.939 80.371,356.822 90.166 C 357.281 91.725,357.918 93.900,358.238 95.000 C 358.559 96.105,358.771 98.163,358.710 99.600 L 358.600 102.200 357.044 102.328 C 355.732 102.435,355.311 102.262,354.364 101.225 L 353.241 99.996 351.120 100.850 C 347.160 102.445,345.478 102.800,341.836 102.809 C 339.082 102.815,337.777 103.009,336.456 103.609 C 334.460 104.515,333.452 104.586,331.623 103.948 C 329.618 103.249,328.958 104.215,327.742 109.626 C 327.170 112.173,326.263 114.971,325.696 115.940 C 324.987 117.150,324.682 118.246,324.694 119.540 C 324.703 120.563,324.706 122.750,324.700 124.400 C 324.669 132.439,324.736 133.115,325.781 135.324 C 326.342 136.508,326.800 137.684,326.800 137.937 C 326.800 138.477,329.758 144.120,330.849 145.662 C 331.262 146.246,331.600 146.899,331.600 147.113 C 331.600 147.327,331.883 147.737,332.229 148.024 C 332.575 148.311,333.208 149.189,333.635 149.973 C 334.062 150.758,335.124 152.480,335.994 153.800 C 336.865 155.120,337.934 156.920,338.370 157.800 C 338.806 158.680,339.436 159.850,339.770 160.400 C 340.105 160.950,340.657 162.030,340.996 162.800 C 341.336 163.570,341.872 164.650,342.186 165.200 C 342.501 165.750,343.413 167.640,344.214 169.400 C 345.015 171.160,345.824 172.870,346.013 173.200 C 346.202 173.530,347.283 175.600,348.415 177.800 C 350.352 181.562,351.088 182.848,354.300 188.082 C 355.015 189.247,355.819 190.560,356.086 191.000 C 356.353 191.440,357.073 192.549,357.686 193.465 C 358.299 194.381,358.805 195.281,358.811 195.465 C 358.817 195.649,359.357 196.507,360.011 197.371 C 360.665 198.235,361.200 199.156,361.200 199.417 C 361.200 199.678,361.588 200.386,362.063 200.989 C 363.112 202.323,363.516 203.075,368.700 213.329 C 370.955 217.790,372.801 221.611,372.802 221.820 C 372.804 222.029,373.094 222.740,373.448 223.400 C 374.371 225.121,375.916 229.534,378.140 236.800 C 378.950 239.444,379.213 241.267,379.326 245.000 C 379.431 248.491,379.665 250.236,380.184 251.400 C 381.681 254.757,383.290 259.508,383.841 262.200 C 384.157 263.740,384.700 266.350,385.049 268.000 C 385.778 271.455,386.532 287.964,386.309 295.600 L 386.164 300.600 384.682 302.791 C 382.705 305.713,382.673 307.316,384.568 308.434 C 386.665 309.671,386.878 313.577,385.012 316.564 C 384.725 317.024,384.263 318.384,383.984 319.586 C 383.706 320.788,383.163 322.498,382.778 323.386 C 382.392 324.274,381.859 326.080,381.592 327.400 C 381.326 328.720,380.859 330.286,380.554 330.880 C 380.250 331.474,379.798 332.914,379.550 334.080 C 379.303 335.246,378.673 337.049,378.150 338.087 C 377.628 339.124,377.199 340.204,377.198 340.487 C 377.196 340.769,376.901 341.540,376.542 342.200 C 376.182 342.860,375.370 344.390,374.736 345.600 C 374.102 346.810,373.092 348.541,372.492 349.447 C 362.393 364.679,349.488 376.855,336.982 382.951 C 335.232 383.804,333.170 384.819,332.400 385.207 C 331.630 385.595,330.370 386.045,329.600 386.206 C 328.830 386.367,327.120 386.910,325.800 387.414 C 318.298 390.275,300.809 391.584,293.434 389.836 C 291.913 389.476,288.881 388.913,286.697 388.585 C 284.512 388.256,282.397 387.813,281.997 387.598 C 281.597 387.384,279.769 386.859,277.935 386.431 C 276.101 386.003,273.790 385.284,272.800 384.835 C 271.810 384.385,270.657 384.014,270.239 384.009 C 269.820 384.004,268.335 383.460,266.938 382.800 C 265.541 382.140,264.168 381.600,263.888 381.600 C 263.607 381.600,263.023 381.352,262.589 381.050 C 262.155 380.747,260.180 379.641,258.200 378.593 C 256.220 377.544,254.123 376.307,253.541 375.843 C 252.958 375.379,251.402 374.229,250.084 373.286 C 247.016 371.093,244.002 368.089,241.569 364.800 C 240.512 363.370,239.309 361.750,238.898 361.200 C 238.486 360.650,237.906 359.570,237.609 358.800 C 237.311 358.030,236.835 357.124,236.550 356.786 C 236.265 356.448,235.678 355.098,235.246 353.786 C 234.815 352.474,234.142 350.590,233.750 349.600 C 232.459 346.333,232.672 332.363,234.049 330.000 C 234.947 328.458,235.069 327.870,234.899 325.899 C 234.573 322.115,235.547 310.978,236.587 306.600 C 238.486 298.601,239.180 295.325,239.789 291.475 C 240.136 289.281,240.801 286.811,241.298 285.875 C 244.274 280.265,241.621 273.566,234.800 269.469 C 233.810 268.874,232.730 268.224,232.400 268.025 C 231.413 267.429,226.675 265.319,225.600 264.996 C 225.050 264.830,224.122 264.359,223.538 263.948 C 222.954 263.536,222.299 263.200,222.083 263.200 C 221.403 263.200,217.482 260.381,215.478 258.451 C 212.811 255.883,206.784 247.346,205.417 244.200 C 205.130 243.540,204.333 242.235,203.645 241.300 L 202.395 239.600 198.856 239.600 C 195.684 239.600,195.210 239.501,194.291 238.649 C 193.194 237.632,191.570 237.619,190.400 238.616 C 188.981 239.827,185.095 241.640,183.129 242.009 C 181.958 242.229,180.539 242.747,179.976 243.161 C 178.311 244.382,174.308 246.270,172.800 246.546 C 172.030 246.687,170.770 247.198,170.000 247.682 C 165.926 250.241,164.299 251.177,163.492 251.427 C 163.001 251.578,161.880 252.108,161.000 252.604 C 160.120 253.100,158.860 253.630,158.200 253.783 C 155.256 254.464,150.931 258.074,148.015 262.284 C 145.871 265.380,145.234 277.827,146.986 282.400 C 147.366 283.390,147.946 285.010,148.276 286.000 C 148.607 286.990,149.210 288.622,149.618 289.626 C 151.088 293.250,152.979 311.319,152.566 317.800 C 152.168 324.042,150.615 332.680,149.436 335.200 C 148.871 336.410,148.402 337.580,148.396 337.800 C 148.389 338.020,147.713 339.210,146.892 340.443 C 146.071 341.677,144.747 343.671,143.950 344.873 C 142.508 347.048,137.901 352.215,134.437 355.544 C 132.033 357.854,127.436 361.276,122.600 364.354 C 121.280 365.195,119.314 366.449,118.231 367.141 C 117.149 367.833,116.046 368.400,115.780 368.400 C 115.515 368.400,115.079 368.663,114.812 368.986 C 114.545 369.308,111.508 370.956,108.063 372.650 C 104.618 374.343,101.530 375.947,101.200 376.214 C 100.870 376.481,99.880 376.925,99.000 377.202 C 98.120 377.478,97.183 377.876,96.918 378.086 C 96.256 378.611,90.384 380.707,87.070 381.600 C 85.569 382.005,83.678 382.602,82.868 382.926 C 82.057 383.251,79.956 383.731,78.197 383.995 C 76.439 384.258,73.470 384.855,71.600 385.320 C 65.950 386.725,48.226 386.613,42.400 385.134 C 40.090 384.548,37.480 383.886,36.600 383.663 C 35.720 383.440,34.280 382.982,33.400 382.646 C 32.520 382.310,31.125 382.027,30.300 382.018 C 29.073 382.003,28.800 381.855,28.800 381.200 C 28.800 380.489,28.533 380.400,26.400 380.400 C 24.138 380.400,24.000 380.345,24.000 379.447 C 24.000 378.514,22.708 377.763,21.931 378.243 C 21.274 378.649,21.619 379.600,22.424 379.600 C 22.884 379.600,23.136 379.781,22.994 380.010 C 22.855 380.235,22.960 380.370,23.228 380.310 C 23.496 380.249,23.875 380.785,24.069 381.500 C 24.406 382.739,24.514 382.800,26.361 382.800 C 28.195 382.800,28.313 382.865,28.540 384.000 C 28.731 384.953,28.988 385.200,29.790 385.200 C 30.592 385.200,30.800 385.400,30.800 386.168 C 30.800 386.919,31.070 387.196,32.000 387.400 C 32.930 387.604,33.200 387.881,33.200 388.632 C 33.200 389.537,33.341 389.600,35.373 389.600 C 37.447 389.600,37.553 389.650,37.673 390.700 C 37.793 391.741,37.923 391.806,40.100 391.920 C 42.353 392.037,42.400 392.064,42.400 393.220 C 42.400 394.384,42.430 394.400,44.600 394.400 C 46.680 394.400,46.800 394.455,46.800 395.400 C 46.800 396.354,46.908 396.400,49.173 396.400 C 51.465 396.400,51.551 396.438,51.673 397.500 L 51.800 398.600 56.100 398.714 C 59.560 398.805,60.400 398.942,60.400 399.414 C 60.400 399.928,77.609 400.000,200.000 400.000 C 322.391 400.000,339.600 399.928,339.600 399.414 C 339.600 398.942,340.440 398.805,343.900 398.714 L 348.200 398.600 348.327 397.500 C 348.449 396.438,348.535 396.400,350.827 396.400 C 353.092 396.400,353.200 396.354,353.200 395.400 C 353.200 394.455,353.320 394.400,355.400 394.400 C 357.570 394.400,357.600 394.384,357.600 393.220 C 357.600 392.064,357.647 392.037,359.900 391.920 C 362.077 391.806,362.207 391.741,362.327 390.700 C 362.447 389.650,362.553 389.600,364.627 389.600 C 366.659 389.600,366.800 389.537,366.800 388.632 C 366.800 387.881,367.070 387.604,368.000 387.400 C 368.930 387.196,369.200 386.919,369.200 386.168 C 369.200 385.400,369.408 385.200,370.210 385.200 C 371.012 385.200,371.269 384.953,371.460 384.000 C 371.687 382.863,371.802 382.800,373.660 382.800 C 375.518 382.800,375.633 382.737,375.860 381.600 C 376.045 380.674,376.315 380.400,377.042 380.400 C 377.705 380.400,378.057 380.113,378.227 379.435 C 378.371 378.860,378.860 378.371,379.435 378.227 C 380.113 378.057,380.400 377.705,380.400 377.042 C 380.400 376.315,380.674 376.045,381.600 375.860 C 382.737 375.633,382.800 375.518,382.800 373.660 C 382.800 371.802,382.863 371.687,384.000 371.460 C 384.953 371.269,385.200 371.012,385.200 370.210 C 385.200 369.408,385.400 369.200,386.168 369.200 C 386.919 369.200,387.196 368.930,387.400 368.000 C 387.604 367.070,387.881 366.800,388.632 366.800 C 389.537 366.800,389.600 366.659,389.600 364.627 C 389.600 362.553,389.650 362.447,390.700 362.327 C 391.741 362.207,391.806 362.077,391.920 359.900 C 392.037 357.647,392.064 357.600,393.220 357.600 C 394.384 357.600,394.400 357.570,394.400 355.400 C 394.400 353.320,394.455 353.200,395.400 353.200 C 396.354 353.200,396.400 353.092,396.400 350.827 C 396.400 348.535,396.438 348.449,397.500 348.327 L 398.600 348.200 398.714 343.900 C 398.805 340.440,398.942 339.600,399.414 339.600 C 399.928 339.600,400.000 322.391,400.000 200.000 C 400.000 77.609,399.928 60.400,399.414 60.400 C 398.942 60.400,398.805 59.560,398.714 56.100 L 398.600 51.800 397.500 51.673 C 396.438 51.551,396.400 51.465,396.400 49.173 C 396.400 46.908,396.354 46.800,395.400 46.800 C 394.455 46.800,394.400 46.680,394.400 44.600 C 394.400 42.430,394.384 42.400,393.220 42.400 C 392.064 42.400,392.037 42.353,391.920 40.100 C 391.806 37.923,391.741 37.793,390.700 37.673 C 389.650 37.553,389.600 37.447,389.600 35.373 C 389.600 33.341,389.537 33.200,388.632 33.200 C 387.881 33.200,387.604 32.930,387.400 32.000 C 387.196 31.070,386.919 30.800,386.168 30.800 C 385.400 30.800,385.200 30.592,385.200 29.790 C 385.200 28.988,384.953 28.731,384.000 28.540 C 382.863 28.313,382.800 28.198,382.800 26.340 C 382.800 24.482,382.737 24.367,381.600 24.140 C 380.674 23.955,380.400 23.685,380.400 22.958 C 380.400 22.295,380.113 21.943,379.435 21.773 C 378.860 21.629,378.371 21.140,378.227 20.565 C 378.057 19.887,377.705 19.600,377.042 19.600 C 376.315 19.600,376.045 19.326,375.860 18.400 C 375.633 17.263,375.518 17.200,373.660 17.200 C 371.802 17.200,371.687 17.137,371.460 16.000 C 371.269 15.047,371.012 14.800,370.210 14.800 C 369.408 14.800,369.200 14.600,369.200 13.832 C 369.200 13.081,368.930 12.804,368.000 12.600 C 367.070 12.396,366.800 12.119,366.800 11.368 C 366.800 10.463,366.659 10.400,364.627 10.400 C 362.553 10.400,362.447 10.350,362.327 9.300 C 362.207 8.259,362.077 8.194,359.900 8.080 C 357.647 7.963,357.600 7.936,357.600 6.780 C 357.600 5.616,357.570 5.600,355.400 5.600 C 353.320 5.600,353.200 5.545,353.200 4.600 C 353.200 3.646,353.092 3.600,350.827 3.600 C 348.535 3.600,348.449 3.562,348.327 2.500 L 348.200 1.400 343.900 1.286 C 340.440 1.195,339.600 1.058,339.600 0.586 C 339.600 0.072,322.391 0.000,200.000 0.000 C 77.609 0.000,60.400 0.072,60.400 0.586 M239.739 159.901 C 236.174 160.308,235.484 182.400,239.037 182.400 C 239.747 182.400,246.407 175.518,247.283 173.878 C 248.381 171.825,247.587 167.980,245.617 165.800 C 245.219 165.360,244.619 164.460,244.283 163.800 C 243.069 161.414,241.122 159.743,239.739 159.901 M214.000 280.428 C 220.770 283.779,223.294 291.106,218.097 292.321 C 217.274 292.513,214.941 293.080,212.912 293.580 C 208.216 294.738,202.117 294.932,201.481 293.944 C 201.053 293.278,202.630 290.255,204.516 288.126 C 206.117 286.319,206.031 283.568,204.295 281.077 C 203.865 280.459,203.584 279.883,203.671 279.796 C 205.113 278.353,210.470 278.681,214.000 280.428 M196.973 284.356 C 197.094 284.552,196.565 285.010,195.796 285.375 C 195.028 285.739,194.402 286.254,194.404 286.519 C 194.406 286.783,193.867 287.450,193.206 288.000 C 192.190 288.846,191.828 289.704,190.851 293.577 C 188.717 302.042,184.543 301.815,177.079 292.826 C 174.492 289.711,177.330 286.731,181.854 287.811 C 185.471 288.675,186.760 288.544,189.823 287.001 C 191.350 286.232,192.909 285.602,193.286 285.601 C 193.663 285.601,194.165 285.240,194.400 284.800 C 194.835 283.987,196.561 283.689,196.973 284.356 M173.912 293.024 C 174.595 293.502,174.714 293.813,174.423 294.356 C 173.924 295.290,173.848 297.919,174.217 301.506 C 174.771 306.894,172.512 309.252,167.375 308.649 C 163.229 308.161,162.002 306.573,161.938 301.608 C 161.880 297.101,162.390 296.400,165.733 296.400 C 168.188 296.400,168.299 296.353,170.424 294.418 C 172.927 292.138,172.750 292.209,173.912 293.024 M100.475 293.433 C 99.833 293.882,99.128 293.991,98.040 293.807 C 96.414 293.532,95.200 294.239,95.200 295.460 C 95.200 295.921,94.919 296.002,94.009 295.802 C 92.223 295.410,91.273 295.889,90.384 297.631 C 89.818 298.741,88.929 299.572,87.359 300.458 C 86.137 301.148,84.926 302.068,84.668 302.504 C 84.170 303.347,78.298 306.400,77.175 306.400 C 76.808 306.400,76.079 306.734,75.554 307.143 C 75.029 307.551,73.790 308.242,72.800 308.678 C 71.810 309.113,70.753 309.769,70.451 310.135 C 70.149 310.501,69.686 310.800,69.422 310.800 C 69.158 310.800,68.235 311.335,67.371 311.989 C 66.507 312.643,65.657 313.183,65.483 313.189 C 64.933 313.208,57.937 319.405,54.600 322.828 C 52.840 324.633,50.770 326.512,50.000 327.004 C 45.407 329.933,39.200 338.287,39.200 341.539 C 39.200 344.608,43.161 346.724,49.800 347.201 C 54.642 347.549,65.395 347.068,67.600 346.405 C 68.370 346.173,70.620 345.718,72.600 345.393 C 74.580 345.068,77.280 344.356,78.600 343.810 C 79.920 343.265,81.270 342.814,81.600 342.808 C 81.930 342.802,82.827 342.415,83.593 341.948 C 84.358 341.481,85.622 340.874,86.401 340.600 C 87.180 340.325,88.474 339.673,89.276 339.150 C 90.079 338.628,91.661 337.660,92.792 337.000 C 110.467 326.689,118.184 308.608,110.156 296.315 C 109.191 294.838,108.054 293.443,107.627 293.215 C 106.386 292.550,101.523 292.699,100.475 293.433 M5.767 356.200 C 5.789 357.456,5.904 357.600,6.895 357.600 C 7.891 357.600,8.000 357.462,8.000 356.200 C 8.000 354.931,7.895 354.800,6.872 354.800 C 5.844 354.800,5.746 354.925,5.767 356.200 " stroke="none" fill="#e30413" fill-rule="evenodd"></path></g></svg>